<svg width="20" height="20" viewBox="0 0 20 20" fill="none" xmlns="http://www.w3.org/2000/svg">
<path fill-rule="evenodd" clip-rule="evenodd" d="M7.66563 3.83116C7.32593 4.33547 7.10242 4.87652 6.99176 5.41128C6.20332 4.63585 5.13092 4.35857 4.27961 4.80308C3.32068 5.3038 2.95294 6.55812 3.32664 7.79106C1.88075 8.83344 1 10.2161 1 11.7331C1 14.9778 5.02944 17.6081 10 17.6081C14.9706 17.6081 19 14.9778 19 11.7331C19 10.0852 17.9607 8.59585 16.2867 7.52899C17.025 6.26472 16.9607 4.84252 16.1048 4.26595C15.3205 3.73769 14.1281 4.09206 13.2462 5.04681C13.3393 3.96436 12.9612 2.961 12.1409 2.40847C10.8048 1.50845 8.8011 2.14541 7.66563 3.83116Z" fill="#AD7A55"/>
</svg>
