<svg width="92" height="92" viewBox="0 0 92 92" fill="none" xmlns="http://www.w3.org/2000/svg">
<g clip-path="url(#clip0_543_20271)">
<rect width="92" height="92" rx="46" fill="#FC615B"/>
<path d="M37.183 50.8982C36.5109 49.9832 34.947 50.3239 34.7536 51.4234C32.7173 63.0209 29.8768 97.9222 70.6479 93.5985C111.419 89.2747 97.2801 47.6325 91.7853 34.9647C91.2969 33.8404 89.4912 34.0211 89.2399 35.2217C88.2495 39.9212 86.4621 47.3036 82.0362 50.0713C82.0362 50.0713 80.7861 40.1581 70.2587 34.3343C61.3428 29.4012 60.5693 28.4452 59.6976 19.3552C59.3861 16.1058 40.2567 29.7556 46.7572 55.5887C46.7572 55.5887 40.7976 55.8128 37.1828 50.896L37.183 50.8982Z" fill="#FC615B"/>
<path fill-rule="evenodd" clip-rule="evenodd" d="M90.9426 6.76118C90.9099 6.22354 90.8472 5.68242 90.7531 5.13961C89.3549 -2.924 81.5621 -8.30616 73.3473 -6.88177C72.836 -6.79313 72.3352 -6.68021 71.8458 -6.54445C68.5699 -10.8804 62.9754 -13.273 57.1701 -12.2664C51.3593 -11.2588 46.8938 -7.11539 45.2728 -1.92259C44.7179 -1.88747 44.1592 -1.82196 43.5985 -1.72474C35.3837 -0.300355 29.8578 7.39119 31.2559 15.4548C31.346 15.9741 31.4625 16.4822 31.604 16.9782C27.0495 20.2045 24.4931 25.7941 25.4954 31.575C26.5422 37.6118 31.173 42.1457 36.8816 43.4459C40.0664 49.046 47.3442 52.2575 55.0597 50.9197C60.0476 50.0549 64.2232 47.4612 66.8529 44.0209C70.4874 46.375 75.2924 47.4115 80.2803 46.5466C88.0283 45.2031 93.8162 39.6882 94.8949 33.3087C99.7296 30.1385 102.488 24.3737 101.453 18.405C100.461 12.6799 96.2446 8.30654 90.9426 6.76118Z" fill="#AFB3BA"/>
<path d="M51.2497 34.2002C46.4189 54.5718 32.4453 57.915 17.0497 54.2642C1.65403 50.6134 -9.33049 41.3516 -4.49968 20.9801C-1.39352 7.88138 13.856 -5.11076 24.3509 -12.7193C29.8095 -16.6773 37.5007 -14.8534 40.6009 -8.86585C46.562 2.64498 54.3535 21.103 51.2478 34.1998L51.2497 34.2002Z" fill="#7C9AFC"/>
<path fill-rule="evenodd" clip-rule="evenodd" d="M14.6849 42.8093C12.963 44.5766 11.6785 46.5748 10.8492 48.6298C8.26404 44.9623 4.18388 43.0778 0.463189 44.2352C-3.72572 45.5384 -6.10253 50.2753 -5.50712 55.4652C-12.0326 58.5781 -16.5492 63.4584 -17.6485 69.5128C-20.0002 82.4645 -5.82233 95.8844 14.0186 99.487C33.8595 103.09 51.8502 95.5106 54.2019 82.5588C55.3961 75.9817 52.3277 69.2838 46.4197 63.8122C50.28 59.3015 51.0526 53.5807 48.0546 50.6597C45.3075 47.9832 40.2926 48.5328 36.0805 51.7029C37.2353 47.4508 36.4532 43.1733 33.5801 40.374C28.8988 35.813 20.4392 36.9033 14.6849 42.8093Z" fill="#AD7A55"/>
<circle cx="58.4805" cy="46.1464" r="13.4178" fill="white"/>
<circle cx="33.5159" cy="46.1463" r="13.4178" fill="white"/>
<circle cx="33.9661" cy="46.1347" r="8.0401" fill="#2E2E35"/>
<circle cx="58.4783" cy="46.1347" r="8.0401" fill="#2E2E35"/>
</g>
<defs>
<clipPath id="clip0_543_20271">
<rect width="92" height="92" rx="46" fill="white"/>
</clipPath>
</defs>
</svg>
