<svg width="64" height="64" viewBox="0 0 64 64" fill="none" xmlns="http://www.w3.org/2000/svg">
<path d="M10.7693 25.5895C10.3318 24.8393 9.11477 24.9723 8.87893 25.793C6.39449 34.4505 1.41843 60.7691 32.7799 60.7691C64.1413 60.7691 56.7457 27.9533 53.5879 17.8743C53.3071 16.9797 51.919 16.9715 51.631 17.8644C50.4986 21.3593 48.5434 26.8305 44.9536 28.5787C44.9536 28.5787 44.8024 20.9374 37.2645 15.6582C30.8806 11.1867 30.3693 10.3971 30.4395 3.41242C30.4647 0.915659 14.8128 9.75529 17.6735 29.9297C17.6735 29.9297 13.1223 29.6194 10.7693 25.5878V25.5895Z" fill="#FC615B"/>
<path fill-rule="evenodd" clip-rule="evenodd" d="M31.3491 39.797C31.374 42.2773 33.3924 44.2803 35.8786 44.2803C38.3648 44.2803 40.3832 42.2773 40.408 39.797H31.3491Z" fill="white"/>
<path fill-rule="evenodd" clip-rule="evenodd" d="M31.7424 37.8982C31.4889 38.4635 31.3479 39.0903 31.3479 39.7499C31.3479 42.2516 33.3759 44.2796 35.8776 44.2796C38.3792 44.2796 40.4072 42.2516 40.4072 39.7499C40.4072 38.2396 39.6681 36.902 38.5319 36.079L31.7424 37.8982Z" fill="white"/>
<circle cx="35.5763" cy="40.6069" r="2.52621" fill="#3C3D45"/>
<path d="M29.4978 45.7071C30.278 46.434 32.2745 47.4518 34.0192 45.7071" stroke="#3C3D45" stroke-width="1.48049" stroke-linecap="round"/>
<path fill-rule="evenodd" clip-rule="evenodd" d="M24.9931 36.074L31.77 37.8898C32.0262 38.4576 32.1687 39.0876 32.1687 39.7509C32.1687 42.2526 30.1407 44.2806 27.6391 44.2806C25.1374 44.2806 23.1094 42.2526 23.1094 39.7509C23.1094 38.237 23.8521 36.8965 24.9931 36.074Z" fill="white"/>
<circle cx="27.9509" cy="40.6069" r="2.52621" fill="#3C3D45"/>
</svg>
