<svg width="151" height="38" viewBox="0 0 151 38" fill="none" xmlns="http://www.w3.org/2000/svg">
<ellipse cx="94.4442" cy="14.7448" rx="7.65013" ry="7.23285" fill="#AFB3BA"/>
<ellipse cx="86.6548" cy="18.6393" rx="7.65013" ry="7.23285" fill="#AFB3BA"/>
<ellipse cx="82.3431" cy="25.8725" rx="7.78923" ry="7.23285" fill="#AFB3BA"/>
<ellipse cx="87.7675" cy="30.3233" rx="8.76288" ry="7.23285" fill="#AFB3BA"/>
<ellipse cx="100.842" cy="30.3233" rx="8.76288" ry="7.23285" fill="#AFB3BA"/>
<ellipse cx="101.955" cy="18.6393" rx="7.65013" ry="7.23285" fill="#AFB3BA"/>
<ellipse cx="94.4442" cy="23.0904" rx="7.65013" ry="7.23285" fill="#AFB3BA"/>
<ellipse cx="106.128" cy="25.8725" rx="7.65013" ry="7.23285" fill="#AFB3BA"/>
<circle cx="97.0095" cy="23.2827" r="2.93804" transform="rotate(15 97.0095 23.2827)" fill="white"/>
<circle cx="91.5423" cy="23.2688" r="2.93804" transform="rotate(-15 91.5423 23.2688)" fill="white"/>
<path d="M93.3377 22.7856C93.4585 23.2366 93.3952 23.7171 93.1618 24.1215C92.9283 24.5258 92.5438 24.8209 92.0928 24.9417C91.6418 25.0626 91.1612 24.9993 90.7569 24.7659C90.3525 24.5324 90.0575 24.1479 89.9366 23.6969L91.6371 23.2412L93.3377 22.7856Z" fill="black"/>
<path d="M98.7104 23.7366C98.5896 24.1876 98.2945 24.5721 97.8901 24.8056C97.4858 25.039 97.0052 25.1023 96.5542 24.9815C96.1032 24.8606 95.7187 24.5655 95.4852 24.1612C95.2518 23.7568 95.1885 23.2763 95.3094 22.8253L97.0099 23.2809L98.7104 23.7366Z" fill="black"/>
<path d="M88.6844 24.0424L94.3761 22.5689" stroke="black" stroke-width="0.927481" stroke-linecap="round"/>
<path d="M94.3111 22.5686L99.9901 24.0903" stroke="black" stroke-width="0.927481" stroke-linecap="round"/>
<path d="M96.1042 27.8308C95.3622 27.2369 93.2599 27.2369 92.5179 27.8308" stroke="black" stroke-width="0.927481" stroke-linecap="round"/>
<path d="M121.23 14.652C120.947 14.1654 120.157 14.2517 120.004 14.784C118.393 20.3994 115.165 37.4703 135.507 37.4703C155.849 37.4703 151.052 16.1852 149.004 9.64778C148.821 9.0675 147.921 9.06218 147.734 9.64139C147 11.9082 145.732 15.457 143.403 16.5909C143.403 16.5909 143.305 11.6346 138.416 8.21039C134.275 5.31007 133.943 4.79793 133.989 0.267507C134.005 -1.35195 123.853 4.38162 125.709 17.4672C125.709 17.4672 122.757 17.2659 121.23 14.6509V14.652Z" fill="#FC615B"/>
<path fill-rule="evenodd" clip-rule="evenodd" d="M134.579 23.8673C134.595 25.4762 135.905 26.7755 137.517 26.7755C139.13 26.7755 140.439 25.4762 140.455 23.8673H134.579Z" fill="white"/>
<path fill-rule="evenodd" clip-rule="evenodd" d="M134.834 22.6353C134.67 23.002 134.578 23.4085 134.578 23.8363C134.578 25.459 135.894 26.7744 137.516 26.7744C139.139 26.7744 140.455 25.459 140.455 23.8363C140.455 22.8568 139.975 21.9891 139.238 21.4553L134.834 22.6353Z" fill="white"/>
<circle cx="137.321" cy="24.3925" r="1.63855" fill="black"/>
<path d="M133.378 27.7007C133.884 28.1722 135.179 28.8323 136.311 27.7007" stroke="black" stroke-width="0.960279" stroke-linecap="round"/>
<path fill-rule="evenodd" clip-rule="evenodd" d="M130.456 21.4521L134.852 22.63C135.018 22.9982 135.111 23.4068 135.111 23.8371C135.111 25.4597 133.795 26.7751 132.173 26.7751C130.55 26.7751 129.235 25.4597 129.235 23.8371C129.235 22.8551 129.716 21.9856 130.456 21.4521Z" fill="white"/>
<circle cx="132.375" cy="24.3925" r="1.63855" fill="black"/>
<path fill-rule="evenodd" clip-rule="evenodd" d="M47.5141 10.5311C46.8506 11.5162 46.414 12.573 46.1979 13.6176C44.658 12.1031 42.5634 11.5615 40.9007 12.4297C39.0282 13.4075 38.3098 15.8566 39.039 18.2643C36.2152 20.3002 34.4951 23.0006 34.4951 25.9633C34.4951 32.3006 42.3652 37.4381 52.0734 37.4381C61.7816 37.4381 69.6517 32.3006 69.6517 25.9633C69.6517 22.7452 67.6222 19.8364 64.3531 17.7527C65.7944 15.2837 65.6686 12.5068 63.997 11.3808C62.4652 10.349 60.1363 11.0412 58.4136 12.9061C58.5957 10.7917 57.8574 8.83167 56.255 7.75238C53.6453 5.99453 49.7319 7.2386 47.5141 10.5311Z" fill="#AD7A55"/>
<circle cx="54.7884" cy="24.2013" r="2.93804" fill="white"/>
<circle cx="49.3219" cy="24.2013" r="2.93804" fill="white"/>
<circle cx="49.4208" cy="24.1983" r="1.76051" fill="#3C3D45"/>
<circle cx="54.7877" cy="24.1983" r="1.76051" fill="#3C3D45"/>
<path d="M55.2104 27.6071C55.9709 27.6071 56.5104 28.3568 56.2595 29.0747C55.653 30.8124 53.9994 32.059 52.0552 32.059C50.1111 32.059 48.4574 30.8124 47.8509 29.0747C47.6005 28.3568 48.1395 27.6071 48.9001 27.6071H55.2104Z" fill="#3C3D45"/>
<path fill-rule="evenodd" clip-rule="evenodd" d="M55.8689 29.9056C55.0893 31.1963 53.6729 32.0592 52.0553 32.0592C50.4377 32.0592 49.0212 31.1962 48.2416 29.9053C48.9723 29.2365 50.406 28.782 52.0551 28.782C53.7045 28.782 55.1383 29.2367 55.8689 29.9056Z" fill="#FFA0A0"/>
<path d="M29.6176 23.4854C29.6176 34.308 22.9879 37.6563 14.8088 37.6563C6.62966 37.6563 0 34.308 0 23.4854C0 16.5265 6.12054 8.17289 10.4918 3.09418C12.7653 0.45233 16.8513 0.45233 19.1248 3.09418C23.496 8.17289 29.6166 16.5275 29.6166 23.4854H29.6176Z" fill="#7C9AFC"/>
<circle cx="17.5552" cy="22.3533" r="2.93804" fill="white"/>
<circle cx="12.0891" cy="22.3533" r="2.93804" fill="white"/>
<circle cx="12.1876" cy="22.3508" r="1.76051" fill="#3C3D45"/>
<circle cx="17.5555" cy="22.3508" r="1.76051" fill="#3C3D45"/>
<path d="M13.2521 26.3612C13.7685 26.8424 15.0901 27.5161 16.2449 26.3612" stroke="#3C3D45" stroke-width="0.979972" stroke-linecap="round"/>
<path d="M8.34729 21.5634L9.2719 21.7658" stroke="#3C3D45" stroke-width="0.979946" stroke-linecap="round"/>
<path d="M9.00867 19.9561L9.79077 20.4891" stroke="#3C3D45" stroke-width="0.979946" stroke-linecap="round"/>
<circle cx="12.0854" cy="22.4185" r="2.99829" fill="white"/>
<circle cx="12.0854" cy="22.4159" r="1.79662" fill="#3C3D45"/>
<path d="M21.2678 21.5631L20.3432 21.7655" stroke="#3C3D45" stroke-width="0.979946" stroke-linecap="round"/>
<path d="M20.6061 19.9558L19.824 20.4889" stroke="#3C3D45" stroke-width="0.979946" stroke-linecap="round"/>
<circle cx="2.99829" cy="2.99829" r="2.99829" transform="matrix(-1 0 0 1 20.528 19.4203)" fill="white"/>
<circle cx="1.79662" cy="1.79662" r="1.79662" transform="matrix(-1 0 0 1 19.3263 20.6194)" fill="#3C3D45"/>
</svg>
