<svg width="28" height="28" viewBox="0 0 28 28" fill="none" xmlns="http://www.w3.org/2000/svg">
<ellipse cx="14.2911" cy="8.8161" rx="5.16007" ry="4.87861" fill="#AFB3BA"/>
<ellipse cx="9.03703" cy="11.4429" rx="5.16007" ry="4.87861" fill="#AFB3BA"/>
<ellipse cx="6.12889" cy="16.3216" rx="5.25389" ry="4.87861" fill="#AFB3BA"/>
<ellipse cx="9.78758" cy="19.3237" rx="5.91063" ry="4.87861" fill="#AFB3BA"/>
<ellipse cx="18.6068" cy="19.3237" rx="5.91063" ry="4.87861" fill="#AFB3BA"/>
<ellipse cx="19.3573" cy="11.4429" rx="5.16007" ry="4.87861" fill="#AFB3BA"/>
<ellipse cx="14.2911" cy="14.4452" rx="5.16007" ry="4.87861" fill="#AFB3BA"/>
<ellipse cx="22.1718" cy="16.3216" rx="5.16007" ry="4.87861" fill="#AFB3BA"/>
<circle cx="16.0214" cy="14.5749" r="1.98173" transform="rotate(15 16.0214 14.5749)" fill="white"/>
<circle cx="12.3339" cy="14.5654" r="1.98173" transform="rotate(-15 12.3339 14.5654)" fill="white"/>
<path d="M13.5447 14.2397C13.6262 14.5439 13.5836 14.868 13.4261 15.1408C13.2686 15.4135 13.0093 15.6125 12.7051 15.694C12.4009 15.7755 12.0767 15.7329 11.804 15.5754C11.5312 15.4179 11.3322 15.1586 11.2507 14.8544L12.3977 14.547L13.5447 14.2397Z" fill="#3C3D45"/>
<path d="M17.1686 14.8809C17.0871 15.1851 16.888 15.4444 16.6153 15.6019C16.3426 15.7594 16.0184 15.802 15.7142 15.7205C15.41 15.639 15.1506 15.44 14.9932 15.1673C14.8357 14.8945 14.793 14.5704 14.8745 14.2662L16.0216 14.5735L17.1686 14.8809Z" fill="#3C3D45"/>
<path d="M10.4062 15.087L14.2453 14.0932" stroke="#3C3D45" stroke-width="0.625593" stroke-linecap="round"/>
<path d="M14.2014 14.0932L18.0319 15.1196" stroke="#3C3D45" stroke-width="0.625593" stroke-linecap="round"/>
<path d="M15.4108 17.6426C14.9103 17.242 13.4923 17.242 12.9918 17.6426" stroke="#3C3D45" stroke-width="0.625593" stroke-linecap="round"/>
</svg>
