<svg width="76" height="76" viewBox="0 0 76 76" fill="none" xmlns="http://www.w3.org/2000/svg">
<circle cx="38.1538" cy="9.53847" r="6.37501" stroke="#FECB47" stroke-width="4.32692"/>
<path d="M8.44659 51.5193C14.1389 42.9808 17.6971 33.7308 17.6971 29.4616L34.7744 28.7501L39.0436 65.0386H4.88985C4.88985 65.0386 1.3312 62.1924 8.44659 51.5193Z" fill="#FECB47"/>
<path d="M68.2168 51.5193C62.5245 42.9808 58.9663 33.7308 58.9663 29.4616L41.889 28.7501L31.0384 45.1155L37.6198 65.0386H71.7736C71.7736 65.0386 75.3322 62.1924 68.2168 51.5193Z" fill="#FECB47"/>
<ellipse cx="38.1539" cy="65.0382" rx="34.1539" ry="9.96155" fill="#9F6C33"/>
<ellipse cx="38.3319" cy="30.8845" rx="20.6346" ry="21.3462" fill="#FECB47"/>
<path fill-rule="evenodd" clip-rule="evenodd" d="M38.1537 69.3077C45.2272 69.3077 50.9614 64.674 50.9614 58.9581C50.9614 57.8301 50.7381 56.7442 50.3252 55.7278C46.5444 55.3071 42.4414 55.0767 38.1539 55.0767C33.8662 55.0767 29.763 55.3071 25.9821 55.7279C25.5692 56.7443 25.3459 57.8301 25.3459 58.9581C25.3459 64.674 31.0802 69.3077 38.1537 69.3077Z" fill="#FFF5E1"/>
<path d="M51.393 28.0712C51.393 24.9373 50.148 21.9318 47.9321 19.7158C45.7161 17.4998 42.7106 16.2549 39.5767 16.2549" stroke="#FFF5E1" stroke-width="4.32692" stroke-linecap="round"/>
</svg>
