<svg width="96" height="55" viewBox="0 0 96 55" fill="none" xmlns="http://www.w3.org/2000/svg">
<ellipse cx="25.6136" cy="26.4227" rx="24.9471" ry="24.9471" fill="white"/>
<ellipse cx="25.6167" cy="26.4038" rx="14.9486" ry="14.9486" fill="#3C3D45"/>
<ellipse cx="24.9471" cy="24.9471" rx="24.9471" ry="24.9471" transform="matrix(-1 0 0 1 95.8594 1.47363)" fill="white"/>
<ellipse cx="14.9486" cy="14.9486" rx="14.9486" ry="14.9486" transform="matrix(-1 0 0 1 85.8567 11.4532)" fill="#3C3D45"/>
<ellipse cx="68.4256" cy="27.8473" rx="22.148" ry="22.148" transform="rotate(15 68.4256 27.8473)" fill="white"/>
<ellipse cx="27.2102" cy="27.7419" rx="22.148" ry="22.148" transform="rotate(-15 27.2102 27.7419)" fill="white"/>
<path d="M40.7437 24.1006C41.6547 27.5005 41.1778 31.123 39.4179 34.1712C37.658 37.2194 34.7593 39.4437 31.3594 40.3547C27.9596 41.2656 24.3371 40.7887 21.2889 39.0288C18.2407 37.269 16.0164 34.3702 15.1054 30.9704L27.9246 27.5355L40.7437 24.1006Z" fill="#3C3D45"/>
<path d="M81.2416 31.2698C80.3306 34.6696 78.1064 37.5683 75.0582 39.3282C72.0099 41.0881 68.3874 41.565 64.9876 40.654C61.5877 39.7431 58.689 37.5188 56.9291 34.4706C55.1693 31.4224 54.6923 27.7999 55.6033 24.4L68.4225 27.8349L81.2416 31.2698Z" fill="#3C3D45"/>
<path d="M5.66272 33.5732L48.5687 22.4657" stroke="#3C3D45" stroke-width="6.99169" stroke-linecap="round"/>
<path d="M48.0771 22.4637L90.8874 33.9347" stroke="#3C3D45" stroke-width="6.99169" stroke-linecap="round"/>
</svg>
