<svg width="64" height="64" viewBox="0 0 64 64" fill="none" xmlns="http://www.w3.org/2000/svg">
<path fill-rule="evenodd" clip-rule="evenodd" d="M25.0721 14.5142C24.0491 16.033 23.376 17.6624 23.0428 19.2728C20.6686 16.9377 17.4393 16.1027 14.8757 17.4412C11.9888 18.9487 10.8813 22.7246 12.0055 26.4365C7.65191 29.5753 5.00002 33.7387 5.00002 38.3064C5.00002 48.0768 17.1336 55.9973 32.101 55.9973C47.0685 55.9973 59.2021 48.0768 59.2021 38.3064C59.2021 33.3448 56.0731 28.8603 51.033 25.6478C53.2552 21.8413 53.0612 17.5599 50.4841 15.824C48.1225 14.2333 44.5321 15.3003 41.8763 18.1752C42.1568 14.9155 41.0185 11.894 38.5483 10.2301C34.5247 7.52 28.4912 9.43804 25.0721 14.5142Z" fill="#AD7A55"/>
<circle cx="36.2871" cy="35.5901" r="4.52967" fill="white"/>
<circle cx="27.8593" cy="35.5901" r="4.52967" fill="white"/>
<circle cx="28.0115" cy="35.5848" r="2.71424" fill="#3C3D45"/>
<circle cx="36.286" cy="35.5848" r="2.71424" fill="#3C3D45"/>
<path d="M36.9378 40.8406C38.1103 40.8406 38.9421 41.9965 38.5552 43.1034C37.6202 45.7823 35.0708 47.7043 32.0734 47.7043C29.076 47.7043 26.5266 45.7823 25.5915 43.1034C25.2055 41.9965 26.0364 40.8406 27.209 40.8406H36.9378Z" fill="#3C3D45"/>
<path fill-rule="evenodd" clip-rule="evenodd" d="M37.9528 44.3845C36.7509 46.3743 34.5672 47.7046 32.0735 47.7046C29.5795 47.7046 27.3955 46.374 26.1937 44.3838C27.3202 43.3528 29.5305 42.6521 32.0729 42.6521C34.6158 42.6521 36.8265 43.3531 37.9528 44.3845Z" fill="#FFA0A0"/>
</svg>
