<svg width="32" height="32" viewBox="0 0 32 32" fill="none" xmlns="http://www.w3.org/2000/svg">
<path d="M16 28C13.7197 26.6655 11.133 25.9629 8.5 25.9629C6.67183 25.9629 4.86602 26.3016 3.16959 26.9553C2.1733 27.3393 1 26.6571 1 25.5894V6.82973C1 6.3388 1.25815 5.8802 1.69441 5.65505C3.79911 4.56883 6.13078 4 8.5 4C11.133 4 13.7197 4.70257 16 6.0371M16 28C18.2803 26.6655 20.8669 25.9629 23.5 25.9629C25.3282 25.9629 27.134 26.3016 28.8304 26.9553C29.8267 27.3393 31 26.6571 31 25.5894V6.82973C31 6.3388 30.7418 5.8802 30.3056 5.65505C28.2009 4.56883 25.8692 4 23.5 4C20.8669 4 18.2803 4.70257 16 6.0371M16 28V6.0371" stroke="#2E2E35" stroke-width="1.3" stroke-linecap="round" stroke-linejoin="round"/>
</svg>
