<svg width="83" height="63" viewBox="0 0 83 63" fill="none" xmlns="http://www.w3.org/2000/svg">
<path d="M51.4785 23.4102H60.0098V37.7051C60.0098 42.6562 61.584 45.2207 65.418 45.2207C69.4043 45.2207 71.6387 42.3516 71.6387 37.7051V23.4102H80.1699V52H72.0195L71.6387 48.1914C70.0391 51.0098 66.9668 52.4316 62.4727 52.4316C58.5625 52.4316 55.7441 51.1875 54.043 48.6738C52.3418 46.1602 51.4785 42.5039 51.4785 37.7051V23.4102Z" fill="#3C3D45"/>
<path d="M38.123 52V13H46.6543V52H38.123Z" fill="#3C3D45"/>
<path d="M20.8574 52.4317C16.3887 52.4317 12.8848 50.8574 11.3613 48.1914V62.4102H2.83008V23.4102H10.9805L11.3613 27.1934C12.8594 24.375 16.2617 22.9531 20.8574 22.9531C28.1953 22.8008 34.2891 29.1231 34.1621 37.7051C34.2891 46.2871 28.1953 52.584 20.8574 52.4317ZM18.5215 30.1895C16.5156 30.1895 14.8145 30.875 13.4434 32.2715C12.0469 33.668 11.3613 35.4961 11.3613 37.7051C11.3613 39.9141 12.0469 41.7168 13.4434 43.1133C14.8145 44.5098 16.5156 45.2207 18.5215 45.2207C20.5273 45.2207 22.2031 44.5098 23.5742 43.1133C24.9453 41.7168 25.6309 39.9141 25.6309 37.7051C25.6309 35.4961 24.9453 33.668 23.5742 32.2715C22.2031 30.875 20.5273 30.1895 18.5215 30.1895Z" fill="#3C3D45"/>
</svg>
