<svg width="64" height="64" viewBox="0 0 64 64" fill="none" xmlns="http://www.w3.org/2000/svg">
<ellipse cx="32.6657" cy="20.151" rx="11.7945" ry="11.1511" fill="#AFB3BA"/>
<ellipse cx="20.6568" cy="26.1551" rx="11.7945" ry="11.1511" fill="#AFB3BA"/>
<ellipse cx="14.009" cy="37.3063" rx="12.0089" ry="11.1511" fill="#AFB3BA"/>
<ellipse cx="22.3723" cy="44.1683" rx="13.51" ry="11.1511" fill="#AFB3BA"/>
<ellipse cx="42.5302" cy="44.1683" rx="13.51" ry="11.1511" fill="#AFB3BA"/>
<ellipse cx="44.2457" cy="26.1551" rx="11.7945" ry="11.1511" fill="#AFB3BA"/>
<ellipse cx="32.6657" cy="33.0175" rx="11.7945" ry="11.1511" fill="#AFB3BA"/>
<ellipse cx="50.6791" cy="37.3063" rx="11.7945" ry="11.1511" fill="#AFB3BA"/>
<circle cx="36.6209" cy="33.3141" r="4.52967" transform="rotate(15 36.6209 33.3141)" fill="white"/>
<circle cx="28.192" cy="33.2921" r="4.52967" transform="rotate(-15 28.192 33.2921)" fill="white"/>
<path d="M30.9599 32.5477C31.1462 33.2431 31.0487 33.9839 30.6888 34.6073C30.3288 35.2308 29.736 35.6857 29.0407 35.872C28.3453 36.0583 27.6045 35.9607 26.981 35.6008C26.3576 35.2409 25.9027 34.648 25.7164 33.9527L28.3382 33.2502L30.9599 32.5477Z" fill="#3C3D45"/>
<path d="M39.2432 34.0133C39.0568 34.7086 38.6019 35.3015 37.9785 35.6614C37.3551 36.0213 36.6142 36.1189 35.9189 35.9326C35.2236 35.7462 34.6307 35.2913 34.2708 34.6679C33.9109 34.0445 33.8133 33.3036 33.9997 32.6083L36.6214 33.3108L39.2432 34.0133Z" fill="#3C3D45"/>
<path d="M23.7859 34.4845L32.561 32.2128" stroke="#3C3D45" stroke-width="1.42993" stroke-linecap="round"/>
<path d="M32.4607 32.213L41.2162 34.5591" stroke="#3C3D45" stroke-width="1.42993" stroke-linecap="round"/>
<path d="M35.225 40.326C34.081 39.4103 30.8399 39.4103 29.6959 40.326" stroke="#3C3D45" stroke-width="1.42993" stroke-linecap="round"/>
</svg>
