<svg width="29" height="28" viewBox="0 0 29 28" fill="none" xmlns="http://www.w3.org/2000/svg">
<path d="M4.99743 11.1954C4.80604 10.8672 4.2736 10.9254 4.17042 11.2845C3.08348 15.0721 0.906457 26.5865 14.6271 26.5865C28.3477 26.5865 25.1121 12.2296 23.7306 7.82003C23.6077 7.42863 23.0004 7.42504 22.8744 7.81572C22.379 9.3447 21.5236 11.7384 19.9531 12.5032C19.9531 12.5032 19.8869 9.16013 16.5891 6.8505C13.7961 4.89422 13.5724 4.54878 13.6031 1.49298C13.6142 0.400645 6.76646 4.26798 8.01802 13.0943C8.01802 13.0943 6.02687 12.9585 4.99743 11.1947V11.1954Z" fill="#FC615B"/>
<path fill-rule="evenodd" clip-rule="evenodd" d="M14.0011 17.4111C14.012 18.4963 14.895 19.3726 15.9827 19.3726C17.0704 19.3726 17.9535 18.4963 17.9643 17.4111H14.0011Z" fill="white"/>
<path fill-rule="evenodd" clip-rule="evenodd" d="M14.173 16.5804C14.0621 16.8277 14.0004 17.1019 14.0004 17.3905C14.0004 18.485 14.8876 19.3722 15.9821 19.3722C17.0766 19.3722 17.9638 18.485 17.9638 17.3905C17.9638 16.7298 17.6405 16.1446 17.1433 15.7845L14.173 16.5804Z" fill="white"/>
<circle cx="15.8502" cy="17.7655" r="1.10521" fill="#3C3D45"/>
<path d="M13.191 19.9968C13.5324 20.3149 14.4058 20.7601 15.1691 19.9968" stroke="#3C3D45" stroke-width="0.647714" stroke-linecap="round"/>
<path fill-rule="evenodd" clip-rule="evenodd" d="M11.2202 15.7824L14.1851 16.5768C14.2972 16.8252 14.3596 17.1008 14.3596 17.391C14.3596 18.4855 13.4723 19.3728 12.3778 19.3728C11.2834 19.3728 10.3961 18.4855 10.3961 17.391C10.3961 16.7287 10.7211 16.1422 11.2202 15.7824Z" fill="white"/>
<circle cx="12.5143" cy="17.7655" r="1.10521" fill="#3C3D45"/>
</svg>
