<svg width="32" height="32" viewBox="0 0 32 32" fill="none" xmlns="http://www.w3.org/2000/svg">
<path d="M16.0975 28C13.832 26.6655 11.2622 25.9629 8.64622 25.9629C6.83684 25.9629 5.04951 26.299 3.3697 26.9479C2.37208 27.3332 1.19495 26.6509 1.19495 25.5815V6.82712C1.19495 6.33759 1.4516 5.88005 1.88603 5.65443C3.97675 4.56862 6.29284 4 8.64622 4C11.2622 4 13.832 4.70257 16.0975 6.0371M16.0975 28C18.363 26.6655 20.9328 25.9629 23.5488 25.9629C25.3581 25.9629 27.1455 26.299 28.8253 26.9479C29.8229 27.3332 31 26.6509 31 25.5815V6.82712C31 6.33759 30.7434 5.88005 30.3089 5.65443C28.2182 4.56862 25.9021 4 23.5488 4C20.9328 4 18.363 4.70257 16.0975 6.0371M16.0975 28V6.0371" stroke="#2E2E35" stroke-width="1.3" stroke-linecap="round" stroke-linejoin="round"/>
<path d="M1.19488 6.50034C0.698141 8 1.19484 24.5 2.18841 27.5C5.16892 25.5 12.289 26.5002 16.0975 27.5C19.6741 25.9 27.1916 26.1667 30.5032 26.5L31 6.50034C28.2182 2.5004 19.5747 4.50037 15.6007 6.00034C14.6072 3.50034 2.11101 3.73453 1.19488 6.50034Z" fill="#2E2E35"/>
<path d="M16.0974 7.5L16.0974 26" stroke="#F0F0F0" stroke-width="1.3" stroke-linecap="round"/>
</svg>
