<svg width="32" height="32" viewBox="0 0 32 32" fill="none" xmlns="http://www.w3.org/2000/svg">
<g clip-path="url(#clip0_535_11899)">
<rect width="32" height="32" rx="16" fill="#FC615B"/>
<path d="M12.9332 17.7038C12.6994 17.3856 12.1554 17.5041 12.0882 17.8865C11.3799 21.9204 10.3919 34.06 24.5731 32.5561C38.7544 31.0522 33.8365 16.5679 31.9253 12.1618C31.7554 11.7707 31.1273 11.8335 31.0399 12.2512C30.6954 13.8858 30.0737 16.4535 28.5343 17.4162C28.5343 17.4162 28.0995 13.9682 24.4378 11.9425C21.3366 10.2266 21.0675 9.89412 20.7643 6.73235C20.656 5.60214 14.0023 10.3499 16.2633 19.3353C16.2633 19.3353 14.1904 19.4133 12.9331 17.7031L12.9332 17.7038Z" fill="#FC615B"/>
<path fill-rule="evenodd" clip-rule="evenodd" d="M31.6325 2.35193C31.6212 2.16483 31.5993 1.97652 31.5666 1.78761C31.0802 -1.01712 28.3697 -2.88918 25.5124 -2.39374C25.3346 -2.36291 25.1604 -2.32363 24.9902 -2.27641C23.8508 -3.78486 21.9046 -4.61727 19.8852 -4.26712C17.8639 -3.91664 16.3106 -2.47526 15.7469 -0.66889C15.554 -0.656672 15.3598 -0.633893 15.1649 -0.600095C12.3075 -0.104656 10.3855 2.57066 10.8718 5.3754C10.9031 5.55604 10.9437 5.73282 10.9929 5.90534C9.40859 7.02752 8.51935 8.97181 8.86801 10.9826C9.23211 13.0825 10.8429 14.6595 12.8287 15.1117C13.9365 17.0594 16.4678 18.1764 19.1513 17.7111C20.8862 17.4103 22.3385 16.5082 23.2532 15.3117C24.5173 16.1304 26.1886 16.4909 27.9234 16.1901C30.6183 15.7228 32.6315 13.8046 33.0067 11.5857C34.6884 10.4831 35.648 8.4779 35.288 6.40184C34.9428 4.41066 33.4765 2.88956 31.6325 2.35193Z" fill="#AFB3BA"/>
<path d="M17.8261 11.8958C16.1458 18.9815 11.2854 20.1444 5.93039 18.8745C0.575387 17.6047 -3.24531 14.3832 -1.56503 7.29746C-0.484627 2.74139 4.81954 -1.77761 8.46995 -4.42406C10.3686 -5.80075 13.0438 -5.16636 14.1221 -3.08373C16.1955 0.920038 18.9056 7.3402 17.8254 11.8956L17.8261 11.8958Z" fill="#7C9AFC"/>
<path fill-rule="evenodd" clip-rule="evenodd" d="M5.10799 14.8899C4.50901 15.5046 4.06219 16.1997 3.77374 16.9146C2.87455 15.6391 1.45543 14.9836 0.161329 15.3862C-1.29569 15.8395 -2.1224 17.4871 -1.9153 19.2923C-4.18516 20.3751 -5.75625 22.0726 -6.13863 24.1785C-6.9566 28.6835 -2.02518 33.3513 4.87601 34.6043C11.7772 35.8574 18.0348 33.2212 18.8528 28.7163C19.2682 26.4286 18.2009 24.0989 16.146 22.1957C17.4887 20.6268 17.7575 18.6369 16.7147 17.6209C15.7592 16.6899 14.0149 16.8811 12.5498 17.9837C12.9517 16.5046 12.6797 15.0166 11.6802 14.0428C10.052 12.4564 7.10947 12.8356 5.10799 14.8899Z" fill="#AD7A55"/>
<circle cx="20.3411" cy="16.0505" r="4.66705" fill="white"/>
<circle cx="11.6578" cy="16.0507" r="4.66705" fill="white"/>
<circle cx="11.8144" cy="16.0469" r="2.79655" fill="#2E2E35"/>
<circle cx="20.3403" cy="16.0469" r="2.79655" fill="#2E2E35"/>
</g>
<defs>
<clipPath id="clip0_535_11899">
<rect width="32" height="32" rx="16" fill="white"/>
</clipPath>
</defs>
</svg>
