<svg width="32" height="32" viewBox="0 0 32 32" fill="none" xmlns="http://www.w3.org/2000/svg">
<path d="M2 28.5263V13.2566C2 12.2905 2.47343 11.3858 3.26713 10.8351L14.2587 3.20823C15.2991 2.48637 16.6842 2.50966 17.6997 3.26608L28.8133 11.5446C29.56 12.1008 30 12.9772 30 13.9083V28.5263C30 29.3402 29.3402 30 28.5263 30H21.1579C20.344 30 19.6842 29.3402 19.6842 28.5263V22.4737C19.6842 21.6598 19.0244 21 18.2105 21H13.7895C12.9756 21 12.3158 21.6598 12.3158 22.4737V28.5263C12.3158 29.3402 11.656 30 10.8421 30H3.47368C2.65979 30 2 29.3402 2 28.5263Z" stroke="#2E2E35" stroke-width="1.3"/>
</svg>
