<svg width="20" height="20" viewBox="0 0 20 20" fill="none" xmlns="http://www.w3.org/2000/svg">
<g clip-path="url(#clip0_535_12042)">
<path fill-rule="evenodd" clip-rule="evenodd" d="M17.8507 8.0656C17.8651 7.93682 17.8725 7.80606 17.8725 7.67367C17.8725 5.63685 16.126 3.98568 13.9717 3.98568C13.8504 3.98568 13.7303 3.99092 13.6118 4.00117C12.9642 2.81273 11.6535 2 10.1421 2C8.62477 2 7.3098 2.81907 6.66481 4.01507C6.50278 3.99568 6.33765 3.98568 6.17004 3.98568C4.01572 3.98568 2.26929 5.63685 2.26929 7.67367C2.26929 7.79092 2.27508 7.9069 2.2864 8.02135C0.935483 8.61002 0 9.88448 0 11.3618C0 12.9131 1.03145 14.2407 2.49227 14.7855C3.07902 16.2573 4.75789 17.3198 6.73743 17.3198C8.0624 17.3198 9.25267 16.8438 10.0709 16.0876C10.8891 16.8438 12.0794 17.3198 13.4044 17.3198C15.4044 17.3198 17.0975 16.2352 17.6674 14.7397C19.0409 14.1689 20 12.8713 20 11.3618C20 9.92048 19.1255 8.67225 17.8507 8.0656Z" fill="white"/>
</g>
<defs>
<clipPath id="clip0_535_12042">
<rect width="20" height="20" fill="white"/>
</clipPath>
</defs>
</svg>
