<svg width="60" height="60" viewBox="0 0 60 60" fill="none" xmlns="http://www.w3.org/2000/svg">
<g clip-path="url(#clip0_543_20270)">
<rect width="60" height="60" rx="30" fill="#FC615B"/>
<path d="M24.2498 33.1946C23.8115 32.5979 22.7916 32.8201 22.6654 33.5372C21.3374 41.1008 19.4849 63.8625 46.0748 61.0426C72.6647 58.2228 63.4436 31.0648 59.86 22.8033C59.5415 22.07 58.3639 22.1878 58.1999 22.9709C57.5541 26.0358 56.3884 30.8503 53.5019 32.6554C53.5019 32.6554 52.6866 26.1903 45.8209 22.3921C40.0062 19.1749 39.5017 18.5514 38.9332 12.6231C38.7301 10.504 26.2544 19.406 30.4938 36.2537C30.4938 36.2537 26.6072 36.3999 24.2497 33.1932L24.2498 33.1946Z" fill="#FC615B"/>
<path fill-rule="evenodd" clip-rule="evenodd" d="M59.3105 4.40949C59.2892 4.0588 59.2483 3.70584 59.1869 3.35178C58.275 -1.9071 53.1928 -5.4172 47.8353 -4.48825C47.5019 -4.43044 47.1752 -4.3568 46.8561 -4.26825C44.7196 -7.09611 41.071 -8.65654 37.2849 -8.00006C33.4951 -7.34294 30.5828 -4.64058 29.5257 -1.25386C29.1639 -1.23095 28.7996 -1.18823 28.4341 -1.12485C23.0766 -0.195898 19.4727 4.82033 20.3846 10.0792C20.4433 10.4178 20.5193 10.7492 20.6115 11.0725C17.6411 13.1766 15.9738 16.8221 16.6276 20.5923C17.3102 24.5295 20.3304 27.4864 24.0536 28.3343C26.1307 31.9864 30.877 34.0807 35.9087 33.2083C39.1617 32.6442 41.8848 30.9528 43.5999 28.7092C45.9701 30.2444 49.1038 30.9203 52.3567 30.3563C57.4097 29.4801 61.1843 25.8835 61.8879 21.7231C65.041 19.6555 66.8402 15.8959 66.1653 12.0033C65.5179 8.26956 62.7683 5.41737 59.3105 4.40949Z" fill="#AFB3BA"/>
<path d="M33.4239 22.3046C30.2734 35.5904 21.1601 37.7708 11.1195 35.3898C1.07888 33.0088 -6.08493 26.9686 -2.9344 13.6828C-0.908646 5.14013 9.03666 -3.333 15.8812 -8.29509C19.4412 -10.8764 24.4572 -9.68691 26.479 -5.78197C30.3667 1.72509 35.4481 13.7629 33.4226 22.3043L33.4239 22.3046Z" fill="#7C9AFC"/>
<path fill-rule="evenodd" clip-rule="evenodd" d="M9.57744 27.9187C8.45446 29.0713 7.61673 30.3745 7.07588 31.7146C5.38992 29.3228 2.72894 28.0938 0.3024 28.8486C-2.42952 29.6985 -3.97961 32.7879 -3.59127 36.1726C-7.84712 38.2028 -10.7928 41.3856 -11.5098 45.3341C-13.0435 53.7809 -3.79704 62.533 9.1427 64.8825C22.0824 67.232 33.8155 62.2892 35.3492 53.8425C36.1281 49.553 34.1268 45.1847 30.2737 41.6162C32.7912 38.6744 33.2951 34.9435 31.3399 33.0386C29.5484 31.2931 26.2781 31.6514 23.5312 33.7186C24.2842 30.9455 23.7741 28.156 21.9004 26.3304C18.8474 23.3559 13.3302 24.0669 9.57744 27.9187Z" fill="#AD7A55"/>
<circle cx="38.1396" cy="30.0954" r="8.75072" fill="white"/>
<circle cx="21.8581" cy="30.0954" r="8.75072" fill="white"/>
<circle cx="22.152" cy="30.0879" r="5.24354" fill="#2E2E35"/>
<circle cx="38.1378" cy="30.0879" r="5.24354" fill="#2E2E35"/>
</g>
<defs>
<clipPath id="clip0_543_20270">
<rect width="60" height="60" rx="30" fill="white"/>
</clipPath>
</defs>
</svg>
