<svg width="29" height="28" viewBox="0 0 29 28" fill="none" xmlns="http://www.w3.org/2000/svg">
<path fill-rule="evenodd" clip-rule="evenodd" d="M11.2548 6.34989C10.8072 7.01439 10.5128 7.7273 10.367 8.43192C9.32828 7.41019 7.91537 7.04482 6.79378 7.63047C5.53071 8.28999 5.04618 9.94197 5.53806 11.566C3.63343 12.9392 2.47327 14.7606 2.47327 16.759C2.47327 21.0335 7.78169 24.4988 14.33 24.4988C20.8782 24.4988 26.1867 21.0335 26.1867 16.759C26.1867 14.5883 24.8178 12.6263 22.6127 11.2208C23.5849 9.5555 23.5 7.68238 22.3725 6.92292C21.3394 6.227 19.7686 6.69381 18.6067 7.95155C18.7294 6.52546 18.2314 5.20356 17.1507 4.47562C15.3904 3.28993 12.7507 4.12907 11.2548 6.34989Z" fill="#AD7A55"/>
<circle cx="16.1614" cy="15.5706" r="1.98173" fill="white"/>
<circle cx="12.4744" cy="15.5706" r="1.98173" fill="white"/>
<circle cx="12.541" cy="15.5683" r="1.18748" fill="#3C3D45"/>
<circle cx="16.1609" cy="15.5683" r="1.18748" fill="#3C3D45"/>
<path d="M16.4463 17.8678C16.9593 17.8678 17.3232 18.3735 17.1539 18.8577C16.7448 20.0298 15.6294 20.8706 14.3181 20.8706C13.0068 20.8706 11.8914 20.0298 11.4823 18.8577C11.3134 18.3735 11.6769 17.8678 12.1899 17.8678H16.4463Z" fill="#3C3D45"/>
<path fill-rule="evenodd" clip-rule="evenodd" d="M16.8901 19.4184C16.3642 20.2889 15.4089 20.8708 14.318 20.8708C13.2268 20.8708 12.2712 20.2886 11.7455 19.4178C12.2384 18.9668 13.2053 18.6603 14.3174 18.6603C15.4301 18.6603 16.3974 18.9671 16.8901 19.4184Z" fill="#FFA0A0"/>
</svg>
