<svg width="104" height="50" viewBox="0 0 104 50" fill="none" xmlns="http://www.w3.org/2000/svg">
<path fill-rule="evenodd" clip-rule="evenodd" d="M51.7792 11.5498C50.2707 14.9142 49.4316 18.6441 49.4316 22.57C49.4316 37.4615 61.5037 49.5335 76.3953 49.5335C91.287 49.5335 103.359 37.4615 103.359 22.57C103.359 13.5808 98.9602 5.61901 92.1976 0.719787L51.7792 11.5498Z" fill="white"/>
<ellipse cx="74.5944" cy="27.6636" rx="15.0377" ry="15.0376" fill="#3C3D45"/>
<path fill-rule="evenodd" clip-rule="evenodd" d="M11.5947 0.680618L51.9396 11.4909C53.4637 14.8697 54.3118 18.6188 54.3118 22.5661C54.3118 37.4576 42.2398 49.5296 27.3481 49.5296C12.4565 49.5296 0.38443 37.4576 0.38443 22.5661C0.38443 13.5553 4.80447 5.57685 11.5947 0.680618Z" fill="white"/>
<ellipse cx="29.2037" cy="27.6635" rx="15.0377" ry="15.0376" fill="#3C3D45"/>
</svg>
